<svg width="232" height="173" viewBox="0 0 232 173" fill="none" xmlns="http://www.w3.org/2000/svg">
<g clip-path="url(#clip0_21_80)">
<path d="M232 172.501C232 172.778 231.777 173 231.499 173H0.501417C0.22332 173 0 172.778 0 172.501C0 172.224 0.22332 172.002 0.501417 172.002H231.499C231.777 172.002 232 172.224 232 172.501Z" fill="#2E2E43"/>
<path d="M183.99 35.5628H48.0667C46.1881 35.5628 44.6597 34.0413 44.6597 32.1712V21.7467C44.6597 19.8766 46.1881 18.3551 48.0667 18.3551H183.99C185.869 18.3551 187.397 19.8766 187.397 21.7467V32.1712C187.397 34.0413 185.869 35.5628 183.99 35.5628Z" fill="white" stroke="#BAB7C9" stroke-width="2" stroke-linecap="round" stroke-linejoin="round"/>
<path d="M183.99 99.8249H48.0667C46.1881 99.8249 44.6597 98.3034 44.6597 96.4333V86.0088C44.6597 84.1387 46.1881 82.6172 48.0667 82.6172H183.99C185.869 82.6172 187.397 84.1387 187.397 86.0088V96.4333C187.397 98.3034 185.869 99.8249 183.99 99.8249Z" fill="white" stroke="#BAB7C9" stroke-width="2" stroke-linecap="round" stroke-linejoin="round"/>
<path d="M87.4988 145.964H47.6454C45.7667 145.964 44.2383 144.443 44.2383 142.573V132.148C44.2383 130.278 45.7667 128.757 47.6454 128.757H87.4988C89.3775 128.757 90.9059 130.278 90.9059 132.148V142.573C90.9059 144.443 89.3775 145.964 87.4988 145.964Z" fill="#74E900"/>
<path d="M44.9582 0.419464H74.7693" stroke="#BAB7C9" stroke-width="2" stroke-linecap="round" stroke-linejoin="round"/>
<path d="M44.9582 64.6816H100.335" stroke="#BAB7C9" stroke-width="2" stroke-linecap="round" stroke-linejoin="round"/>
<path d="M167.545 154.039L162.858 157.022L167.108 163.642L171.796 160.659L167.545 154.039Z" fill="#F1A1A4"/>
<path d="M152.678 65.0575L146.756 67.0705L146.664 58.5586L152.052 58.4987L152.678 65.0575Z" fill="#F1A1A4"/>
<path d="M147.355 60.9089C150.626 60.9089 153.277 58.2697 153.277 55.014C153.277 51.7583 150.626 49.119 147.355 49.119C144.085 49.119 141.433 51.7583 141.433 55.014C141.433 58.2697 144.085 60.9089 147.355 60.9089Z" fill="#F1A1A4"/>
<path d="M148.976 54.4128C147.986 54.3937 147.322 53.4062 146.926 52.4977C146.53 51.5945 146.123 50.5499 145.202 50.1826C144.447 49.8834 143.147 51.9726 142.545 51.4286C141.92 50.86 142.491 47.8894 143.144 47.3535C143.797 46.8176 144.693 46.7033 145.535 46.6516C147.598 46.5347 149.672 46.6761 151.7 47.076C152.952 47.3208 154.247 47.699 155.157 48.5885C156.313 49.7175 156.624 51.4367 156.723 53.0444C156.827 54.6902 156.747 56.4149 155.96 57.8676C155.171 59.3175 153.501 60.3975 151.88 60.0493C151.708 59.1761 151.861 58.2811 151.916 57.3888C151.971 56.502 151.891 55.5444 151.339 54.8426C150.787 54.1407 149.623 53.8741 148.997 54.508" fill="#2F2E43"/>
<path d="M156.283 56.3741C156.87 55.9362 157.573 55.5662 158.302 55.6478C159.092 55.7321 159.764 56.3741 159.975 57.1358C160.185 57.8975 159.966 58.7408 159.488 59.3719C159.01 60.0031 158.291 60.422 157.526 60.6369C157.083 60.762 156.6 60.8137 156.173 60.6369C155.548 60.3758 155.203 59.5896 155.441 58.9557" fill="#2F2E43"/>
<path d="M134.246 112.065C133.875 114.005 134.615 115.767 135.905 115.999C137.192 116.23 138.539 114.842 138.914 112.903C139.075 112.13 139.039 111.33 138.81 110.571L143.365 80.1689L137.228 79.0917L135.208 109.929C134.714 110.561 134.383 111.292 134.246 112.073L134.246 112.065Z" fill="#F1A1A4"/>
<path d="M146.647 63.1641L142.466 63.2103C139.515 63.6864 138.731 65.2669 138.094 68.1722C137.118 72.6037 135.872 78.5095 136.134 78.5911C136.553 78.7271 143.704 81.9807 147.325 81.1755L146.65 63.1641L146.647 63.1641Z" fill="#74E900"/>
<path d="M151.782 159.794L146.219 159.856L146.307 167.712L151.87 167.65L151.782 159.794Z" fill="#F1A1A4"/>
<path d="M140.928 172.53C140.34 172.538 139.824 172.53 139.43 172.497C137.949 172.38 136.531 171.308 135.812 170.683C135.49 170.403 135.383 169.946 135.544 169.554C135.659 169.274 135.894 169.059 136.189 168.969L140.083 167.816L146.36 163.498L146.431 163.623C146.459 163.67 147.093 164.777 147.309 165.528C147.391 165.813 147.374 166.05 147.254 166.235C147.172 166.363 147.057 166.439 146.964 166.485C147.079 166.602 147.44 166.842 148.549 167.005C150.162 167.244 150.487 165.574 150.498 165.503L150.509 165.446L150.555 165.413C151.318 164.91 151.785 164.684 151.949 164.731C152.053 164.758 152.219 164.809 152.728 169.336C152.774 169.478 153.107 170.517 152.9 171.518C152.676 172.606 147.907 172.282 146.956 172.209C146.929 172.212 143.365 172.505 140.922 172.53H140.93L140.928 172.53Z" fill="#2F2E43"/>
<path d="M161.47 171.224C160.816 171.232 160.215 171.159 159.786 171.088C159.365 171.017 159.032 170.688 158.961 170.269C158.906 169.967 158.996 169.665 159.196 169.437L161.885 166.406L164.913 159.437L165.041 159.505C165.088 159.529 166.214 160.136 166.798 160.658C167.02 160.857 167.132 161.066 167.132 161.289C167.132 161.442 167.074 161.567 167.017 161.651C167.178 161.689 167.61 161.7 168.637 161.257C170.132 160.609 169.52 159.021 169.493 158.958L169.471 158.904L169.496 158.855C169.875 158.028 170.154 157.587 170.315 157.538C170.419 157.511 170.586 157.459 173.425 161.034C173.54 161.129 174.376 161.833 174.731 162.791C175.117 163.833 170.906 166.069 170.053 166.507C170.028 166.529 165.626 169.785 163.817 170.718C163.098 171.088 162.243 171.21 161.464 171.216L161.472 171.224L161.47 171.224Z" fill="#2F2E43"/>
<path d="M155.135 94.0345L139.559 94.2059L138.307 108.645L145.087 161.877L153.039 161.787L149.517 131.039L162.727 158.691L169.739 153.686L159.376 127.848C159.376 127.848 162.724 105.204 159.833 99.6057C156.944 94.0073 155.138 94.0263 155.138 94.0263V94.0345L155.135 94.0345Z" fill="#2F2E43"/>
<path d="M162.891 94.8288L138.151 95.1036L145.218 63.1831L155.999 63.0607L162.891 94.8288Z" fill="#74E900"/>
<path d="M165.306 111.722C165.722 113.656 165.019 115.433 163.738 115.691C162.453 115.952 161.076 114.595 160.663 112.661C160.486 111.891 160.502 111.091 160.713 110.327L155.477 80.0302L161.587 78.8169L164.295 109.606C164.803 110.226 165.15 110.952 165.306 111.728V111.722Z" fill="#F1A1A4"/>
<path d="M151.82 63.107L156.001 63.0607C158.961 63.4742 159.781 65.0357 160.486 67.9274C161.56 72.3371 162.934 78.2103 162.677 78.3001C162.259 78.4415 155.187 81.8528 151.55 81.1292L151.826 63.107L151.82 63.107Z" fill="#74E900"/>
</g>
<defs>
<clipPath id="clip0_21_80">
<rect width="232" height="173" fill="white"/>
</clipPath>
</defs>
</svg>
