<svg width="50" height="60" viewBox="0 0 50 60" fill="none" xmlns="http://www.w3.org/2000/svg">
<path d="M11.0098 54.8657L13.6502 39.657L33.5306 41.6048L30.8126 58.4618L21.8819 48.7971L11.0098 54.8657Z" fill="#FFF066" stroke="#0D0D0D" stroke-width="0.4" stroke-linejoin="round"/>
<path d="M27.1421 46.5857C14.9439 46.5857 5.05525 36.743 5.05525 24.6013C5.05525 12.4596 14.9439 2.61679 27.1421 2.61679C39.3404 2.61679 49.229 12.4596 49.229 24.6013C49.229 36.743 39.3404 46.5857 27.1421 46.5857Z" fill="#AACC00"/>
<path fill-rule="evenodd" clip-rule="evenodd" d="M17.4856 44.3799C20.4027 45.7938 23.6795 46.5869 27.1422 46.5869C35.2817 46.5869 42.3928 42.2044 46.224 35.6809L21.1108 29.8494L17.4856 44.3799Z" fill="#1E8057"/>
<path d="M17.4856 44.3799L17.3733 44.5954C17.2696 44.5452 17.2153 44.4325 17.2426 44.3235L17.4856 44.3799ZM46.224 35.6809L46.2825 35.4464C46.3587 35.4641 46.422 35.5153 46.4532 35.5848C46.4846 35.6543 46.4802 35.7338 46.4415 35.7997L46.224 35.6809ZM21.1108 29.8494L20.8678 29.7929C20.8833 29.7307 20.9238 29.677 20.9803 29.6436C21.037 29.6102 21.105 29.5999 21.1693 29.6148L21.1108 29.8494ZM17.5978 44.1644C20.4811 45.5619 23.7195 46.3457 27.1422 46.3457V46.8281C23.6393 46.8281 20.3243 46.0257 17.3733 44.5954L17.5978 44.1644ZM27.1422 46.3457C35.1853 46.3457 42.2166 42.0155 46.0065 35.562L46.4415 35.7997C42.5691 42.3935 35.378 46.8281 27.1422 46.8281V46.3457ZM21.1693 29.6148L46.2825 35.4464L46.1655 35.9153L21.0523 30.0838L21.1693 29.6148ZM17.2426 44.3235L20.8678 29.7929L21.354 29.9058L17.7287 44.4364L17.2426 44.3235Z" fill="#0D0D0D"/>
<path d="M22.2713 45.62C10.3969 45.62 0.770721 35.7773 0.770721 23.6356C0.770721 11.4939 10.3969 1.65109 22.2713 1.65109C34.1458 1.65109 43.772 11.4939 43.772 23.6356C43.772 35.7773 34.1458 45.62 22.2713 45.62Z" fill="white" stroke="#0D0D0D" stroke-width="0.4" stroke-linejoin="round"/>
<path d="M22.0775 41.2602C12.6764 41.2602 5.05536 33.3688 5.05536 23.6343C5.05536 13.8998 12.6764 6.00848 22.0775 6.00848C31.4785 6.00848 39.0996 13.8998 39.0996 23.6343C39.0996 33.3688 31.4785 41.2602 22.0775 41.2602Z" stroke="#0D0D0D" stroke-width="0.4" stroke-linejoin="round"/>
<path d="M24.2132 13.3977L19.8327 18.8687L12.6776 18.489L16.7175 24.1987L14.1322 30.6461L21.0096 28.7038L26.567 33.0682L26.7774 26.1582L32.7974 22.4081L26.0501 20.0797L24.2132 13.3977Z" fill="#FFF066" stroke="#0D0D0D" stroke-width="0.4" stroke-linejoin="round"/>
</svg>
