<svg width="55" height="53" viewBox="0 0 55 53" fill="none" xmlns="http://www.w3.org/2000/svg">
<g clip-path="url(#clip0_12_813)">
<path d="M46.9879 12.6962C47.5562 10.7772 49.5857 9.68228 51.4854 10.2698C53.3326 10.8411 54.3647 12.7922 53.8056 14.6562L46.4244 39.2641L39.5801 37.7147L46.9879 12.6962Z" fill="#0D0D0D"/>
<path d="M45.7743 14.0087L53.0689 16.0704L46.1212 39.2262L38.7708 37.5555L45.7743 14.0087Z" fill="#AACC00"/>
<path d="M45.7743 14.0087L53.0689 16.0704L46.1212 39.2262L38.7708 37.5555L45.7743 14.0087Z" stroke="#0D0D0D" stroke-width="0.4" stroke-linejoin="round"/>
<path d="M46.9753 12.3378L35.0583 51.8209L30.682 45.0751L23.7473 48.0512L19.8425 42.0327L12.9749 45.0751L8.73311 38.9244L1.52905 42.0327L13.7826 3.34341C14.4918 1.49166 16.3411 0.0101212 21.9966 1.49158L51.2168 10.0411C51.3112 10.0649 51.4046 10.0923 51.4967 10.1229L51.2168 10.0411C49.6495 9.64463 47.8125 10.2056 46.9753 12.3378Z" fill="#F7F4F4"/>
<path d="M53.5736 14.388C54.4693 12.3913 53.1966 10.689 51.4967 10.1229M51.4967 10.1229C49.8744 9.58275 47.863 10.0772 46.9753 12.3378L35.0583 51.8209L30.682 45.0751L23.7473 48.0512L19.8425 42.0327L12.9749 45.0751L8.73311 38.9244L1.52905 42.0327L13.7826 3.34341C14.4918 1.49166 16.3411 0.0101212 21.9966 1.49158L51.4967 10.1229Z" stroke="#0D0D0D" stroke-width="0.4" stroke-linecap="round" stroke-linejoin="round"/>
<path d="M13.3785 17.9602L38.492 25.3673M12.3014 21.8621L37.7513 29.2693M11.0222 25.3673L36.3376 32.7744" stroke="#0D0D0D" stroke-width="0.4" stroke-linecap="round" stroke-linejoin="round"/>
<path fill-rule="evenodd" clip-rule="evenodd" d="M4.17596 33.6759L1.52881 42.0341L8.73287 38.9256L12.9746 45.0763L19.8423 42.0341L23.7471 48.0524L30.6818 45.0763L35.0581 51.8222L37.3875 44.1043L4.17596 33.6759ZM50.5955 9.93767C50.8051 9.95552 51.0132 9.99085 51.2165 10.0423L51.4964 10.1242C51.4044 10.0935 51.3109 10.0662 51.2165 10.0423L50.6173 9.86697L50.5955 9.93767Z" fill="#FFF066"/>
<path d="M1.5288 42.0341L1.2732 41.9519C1.24128 42.0527 1.27066 42.163 1.34839 42.2341C1.42611 42.3052 1.53788 42.3241 1.63443 42.2825L1.5288 42.0341ZM4.17595 33.6759L4.25578 33.4179C4.115 33.3737 3.96518 33.4522 3.92036 33.5937L4.17595 33.6759ZM8.73286 38.9256L8.9532 38.7714C8.88052 38.666 8.74432 38.6267 8.62724 38.6772L8.73286 38.9256ZM12.9746 45.0763L12.7543 45.2305C12.8275 45.3367 12.9651 45.3758 13.0826 45.3238L12.9746 45.0763ZM19.8423 42.0341L20.0668 41.8861C19.9951 41.7755 19.8543 41.7334 19.7343 41.7866L19.8423 42.0341ZM23.7471 48.0524L23.5226 48.2003C23.5937 48.3099 23.7326 48.3525 23.8523 48.3011L23.7471 48.0524ZM30.6818 45.0763L30.9064 44.9284C30.8353 44.8187 30.6963 44.7763 30.5767 44.8276L30.6818 45.0763ZM35.0581 51.8222L34.8335 51.97C34.8905 52.0579 34.9929 52.1046 35.0959 52.0898C35.1991 52.0749 35.2844 52.0012 35.3147 51.9008L35.0581 51.8222ZM37.3875 44.1043L37.6441 44.183C37.6871 44.0408 37.6081 43.8905 37.4673 43.8463L37.3875 44.1043ZM50.5954 9.93767L50.3392 9.85726C50.3151 9.93549 50.3274 10.0206 50.3728 10.0886C50.4182 10.1565 50.4917 10.2001 50.5728 10.207L50.5954 9.93767ZM51.4964 10.1242L51.4217 10.3838C51.5621 10.4249 51.7093 10.3451 51.7526 10.2043C51.7961 10.0636 51.7195 9.9138 51.5806 9.86755L51.4964 10.1242ZM50.6173 9.86697L50.6922 9.60741C50.5517 9.56633 50.4046 9.64599 50.3611 9.78656L50.6173 9.86697ZM53.3288 14.2779C53.2679 14.414 53.3279 14.5741 53.4628 14.6355C53.5979 14.697 53.7569 14.6366 53.8179 14.5006L53.3288 14.2779ZM51.5806 9.86755C51.4399 9.82071 51.2882 9.89764 51.2416 10.0394C51.1952 10.1811 51.2715 10.334 51.4123 10.3808L51.5806 9.86755ZM1.78439 42.1163L4.43156 33.7581L3.92036 33.5937L1.2732 41.9519L1.78439 42.1163ZM8.62724 38.6772L1.42318 41.7855L1.63443 42.2825L8.83849 39.1742L8.62724 38.6772ZM13.195 44.9221L8.9532 38.7714L8.51253 39.0799L12.7543 45.2305L13.195 44.9221ZM19.7343 41.7866L12.8666 44.8288L13.0826 45.3238L19.9502 42.2815L19.7343 41.7866ZM23.9717 47.9044L20.0668 41.8861L19.6177 42.1819L23.5226 48.2003L23.9717 47.9044ZM30.5767 44.8276L23.642 47.8038L23.8523 48.3011L30.787 45.325L30.5767 44.8276ZM35.2826 51.6743L30.9064 44.9284L30.4573 45.2242L34.8335 51.97L35.2826 51.6743ZM37.1308 44.0257L34.8013 51.7435L35.3147 51.9008L37.6441 44.183L37.1308 44.0257ZM37.4673 43.8463L4.25578 33.4179L4.09612 33.934L37.3076 44.3624L37.4673 43.8463ZM51.2819 9.78015C51.0647 9.72522 50.8424 9.68744 50.618 9.66833L50.5728 10.207C50.7678 10.2236 50.9615 10.2565 51.1512 10.3045L51.2819 9.78015ZM51.5712 9.86462L51.2914 9.78274L51.1417 10.3019L51.4217 10.3838L51.5712 9.86462ZM51.1512 10.3045C51.2392 10.3267 51.3263 10.3522 51.4123 10.3808L51.5806 9.86755C51.4823 9.83482 51.3826 9.80563 51.2819 9.78015L51.1512 10.3045ZM50.5425 10.1266L51.1417 10.3019L51.2914 9.78274L50.6922 9.60741L50.5425 10.1266ZM50.3611 9.78656L50.3392 9.85726L50.8515 10.0181L50.8734 9.94739L50.3611 9.78656ZM53.8179 14.5006C54.3008 13.4238 54.2028 12.4083 53.7418 11.5872C53.2856 10.7745 52.4842 10.1685 51.5806 9.86755L51.4123 10.3808C52.2086 10.646 52.8935 11.1742 53.2748 11.8533C53.6512 12.524 53.7416 13.358 53.3288 14.2779L53.8179 14.5006Z" fill="#0D0D0D"/>
</g>
<defs>
<clipPath id="clip0_12_813">
<rect width="55" height="52.7083" fill="white"/>
</clipPath>
</defs>
</svg>
