<svg width="55" height="70" viewBox="0 0 55 70" fill="none" xmlns="http://www.w3.org/2000/svg">
<g clip-path="url(#clip0_33_172)">
<path fill-rule="evenodd" clip-rule="evenodd" d="M1.04492 23.7265V26.9938L27.4999 37.2546L53.955 27.334V23.7265L27.6181 33.6471L1.04492 23.7265Z" fill="#1E8057"/>
<path d="M1.59504 24.6595V26.4783L27.5012 36.5262L53.4051 26.8123V24.6619L27.7728 34.317C27.6671 34.3565 27.5595 34.3536 27.4613 34.3162L1.59504 24.6595ZM0.494995 26.9938V23.7265H0.496294C0.496294 23.6614 0.503505 23.5952 0.518641 23.5296C0.603999 23.1596 0.90899 22.9479 1.19969 23.0565L27.6174 32.9191L53.7605 23.0716C53.821 23.0424 53.8866 23.0264 53.9551 23.0264C54.2589 23.0264 54.5051 23.3399 54.5051 23.7265V27.334H54.5038C54.5039 27.636 54.349 27.9146 54.1098 28.0039L27.6547 37.9245L27.6544 37.9236C27.5555 37.9607 27.4471 37.9627 27.341 37.9218L0.93361 27.6794C0.683251 27.6139 0.494995 27.3318 0.494995 26.9938Z" fill="black"/>
<path fill-rule="evenodd" clip-rule="evenodd" d="M27.6181 33.6471L1.04492 23.7265L27.6181 16.2109L53.955 23.7265L27.6181 33.6471Z" fill="white"/>
<path d="M27.4612 34.3162L0.890294 24.3964C0.599595 24.2878 0.433231 23.8996 0.518589 23.5296C0.579977 23.2636 0.754916 23.0793 0.956424 23.0373L27.4999 15.5301C27.5812 15.5073 27.6622 15.5087 27.7384 15.5306L54.0754 23.0456C54.3708 23.1301 54.5564 23.5036 54.49 23.8796C54.4448 24.1356 54.2943 24.3268 54.1097 24.3961L27.7728 34.317C27.6671 34.3565 27.5594 34.3536 27.4612 34.3162ZM3.24252 23.8192L27.6174 32.9191L51.7748 23.8195L27.6165 16.9257L3.24252 23.8192Z" fill="black"/>
<path d="M27.4409 26.4322C29.4303 26.4322 31.043 25.8265 31.043 25.0793C31.043 24.3322 29.4303 23.7265 27.4409 23.7265C25.4516 23.7265 23.8389 24.3322 23.8389 25.0793C23.8389 25.8265 25.4516 26.4322 27.4409 26.4322Z" fill="#1E8057"/>
<path d="M27.441 23.0264C28.4853 23.0264 29.4414 23.1895 30.1426 23.4528C31.0388 23.7893 31.5931 24.3582 31.5931 25.0793C31.5931 25.8004 31.0388 26.3693 30.1427 26.7058C29.4414 26.9691 28.4853 27.1321 27.441 27.1321C26.3967 27.1321 25.4405 26.9691 24.7393 26.7058C23.8431 26.3693 23.2888 25.8004 23.2888 25.0793C23.2888 24.3582 23.8431 23.7893 24.7393 23.4528C25.4406 23.1895 26.3967 23.0264 27.441 23.0264ZM29.8333 24.7927C29.231 24.5665 28.386 24.4265 27.441 24.4265C26.4961 24.4265 25.6509 24.5665 25.0486 24.7927C24.641 24.9457 24.3889 25.0534 24.3889 25.0793C24.3889 25.1052 24.641 25.2129 25.0486 25.366C25.6509 25.5922 26.4961 25.732 27.441 25.732C28.386 25.732 29.2311 25.5921 29.8333 25.366C30.2408 25.2129 30.493 25.1052 30.493 25.0793C30.493 25.0534 30.2408 24.9457 29.8333 24.7927Z" fill="black"/>
<path fill-rule="evenodd" clip-rule="evenodd" d="M26.9415 37.7104L14 32.5L10 48.5L26.8247 55L44 48.2413L41.1532 32.0775L26.9415 37.7104Z" fill="#74E900"/>
<path fill-rule="evenodd" clip-rule="evenodd" d="M47.7839 33.0089C48.7298 33.0089 49.4965 33.9846 49.4965 35.1883C49.4965 35.701 49.3574 36.1722 49.1247 36.5443C49.111 36.5422 49.0971 36.5411 49.083 36.5411H46.4412C46.2098 36.1696 46.0715 35.6994 46.0715 35.1883C46.0715 33.9846 46.8382 33.0089 47.7839 33.0089Z" fill="#F2B840"/>
<path d="M47.7839 32.3089C48.4085 32.3089 48.9743 32.6312 49.3837 33.1522C49.7931 33.6733 50.0465 34.3932 50.0465 35.1883C50.0465 35.5158 50.0015 35.8352 49.919 36.1362C49.8342 36.4459 49.7098 36.7303 49.5543 36.979C49.4368 37.1672 49.2583 37.2576 49.0831 37.2409C49.0839 37.2411 49.0841 37.2411 49.083 37.2411H46.4411C46.2449 37.2411 46.0727 37.1103 45.9753 36.9134C45.8364 36.6779 45.7252 36.4155 45.6484 36.1343C45.5662 35.8335 45.5215 35.5147 45.5215 35.1883C45.5215 34.3932 45.7748 33.6734 46.1842 33.1523C46.5936 32.6312 47.1592 32.3089 47.7839 32.3089ZM48.606 34.1421C48.3957 33.8745 48.105 33.7089 47.7839 33.7089C47.4628 33.7089 47.1721 33.8745 46.9619 34.1421C46.7516 34.4097 46.6215 34.7797 46.6215 35.1883C46.6215 35.3635 46.6436 35.5272 46.6839 35.675C46.6995 35.7321 46.7177 35.7876 46.7382 35.8411H48.8293C48.85 35.7878 48.8681 35.733 48.8835 35.6768C48.9242 35.5284 48.9464 35.3639 48.9464 35.1883C48.9464 34.7796 48.8163 34.4097 48.606 34.1421ZM49.067 37.2391L49.0658 37.2389H49.0668L49.0582 37.2377L49.0581 37.2387L49.067 37.2391ZM49.0696 37.2389C49.0768 37.2394 49.083 37.2398 49.0739 37.2391L49.0696 37.2389Z" fill="black"/>
<path d="M49.0828 36.541H46.3665C46.1708 36.541 46.0122 36.7429 46.0122 36.9919V39.397C46.0122 39.6461 46.1708 39.8479 46.3665 39.8479H49.0828C49.2785 39.8479 49.4371 39.6461 49.4371 39.397V36.9919C49.4371 36.7429 49.2785 36.541 49.0828 36.541Z" fill="#F2B840"/>
<path d="M46.3665 35.8411H49.0828C49.3304 35.8411 49.5562 35.9706 49.7198 36.1787L49.722 36.1814C49.8855 36.3897 49.9872 36.6769 49.9872 36.992V39.3971C49.9872 39.7124 49.8855 39.9995 49.722 40.2078L49.7198 40.2105C49.5562 40.4186 49.3304 40.5481 49.0828 40.5481H46.3665C46.1189 40.5481 45.8932 40.4187 45.7295 40.2105L45.7274 40.2078C45.5639 39.9995 45.4622 39.7124 45.4622 39.3971V36.992C45.4622 36.6769 45.5638 36.3897 45.7274 36.1814L45.7295 36.1787C45.8932 35.9705 46.1189 35.8411 46.3665 35.8411ZM48.8871 37.2411H46.5622V39.148H48.8871V37.2411Z" fill="black"/>
<path fill-rule="evenodd" clip-rule="evenodd" d="M46.3028 50.3699C46.7963 50.3699 47.2896 50.3699 47.7831 50.3699C48.2765 50.3699 48.7699 50.3699 49.2639 50.3699C49.7809 50.3699 50.1672 49.8317 50.1219 49.1732C50.0216 47.7196 49.9213 46.2634 49.8211 44.8096C49.7209 43.3559 49.6198 41.8994 49.5195 40.4447C49.5007 40.1702 49.4328 39.9164 49.3344 39.7136C49.2701 39.7965 49.181 39.848 49.0827 39.848H46.3665C46.3051 39.848 46.2472 39.8279 46.1967 39.7925C46.1179 39.9805 46.0642 40.2047 46.0476 40.4447C45.9468 41.8994 45.8461 43.3559 45.746 44.8096C45.6459 46.2634 45.5456 47.7196 45.4453 49.1732C45.3999 49.8317 45.7856 50.3699 46.3028 50.3699Z" fill="#F2B840"/>
<path d="M46.303 49.6699H49.2641L49.2981 49.6683C49.3814 49.659 49.4514 49.6153 49.4989 49.5499L49.4978 49.5485C49.5465 49.4806 49.5757 49.3858 49.5757 49.2779L49.5743 49.2334L48.9749 40.5481H46.5926L45.9933 49.2334L45.9919 49.2779C45.9919 49.3861 46.021 49.4807 46.0696 49.5485C46.1171 49.6149 46.1867 49.6591 46.269 49.6683L46.303 49.6699ZM47.7834 51.07H46.303C46.2609 51.07 46.2179 51.0675 46.1744 51.0627C45.8081 51.0219 45.4876 50.81 45.2574 50.4891C45.0285 50.1696 44.8918 49.7454 44.8918 49.2779C44.8918 49.2249 44.8939 49.1696 44.8977 49.113L45.5 40.3845C45.5108 40.2277 45.5354 40.068 45.5714 39.9104C45.6033 39.7709 45.6446 39.6375 45.6937 39.5129C45.7003 39.4938 45.7076 39.4748 45.7157 39.4561C45.8522 39.1396 46.1533 39.0111 46.4091 39.148H49.0141L49.0467 39.1202C49.3042 38.9179 49.6419 39.0195 49.8009 39.3472C49.8743 39.4987 49.9357 39.667 49.9809 39.8459C50.025 40.0204 50.0551 40.202 50.0676 40.3845L50.6699 49.113C50.6737 49.1696 50.6758 49.2248 50.6758 49.2779C50.6758 49.7454 50.539 50.1698 50.3099 50.4891L50.3087 50.4877L50.3077 50.4891C50.0773 50.8101 49.7574 51.022 49.3926 51.0627C49.3492 51.0675 49.3062 51.07 49.2641 51.07H47.7834Z" fill="black"/>
<path d="M31.0689 24.3821L48.2634 25.4204V32.9293H47.1633V26.7515L31.0173 25.7765L31.0689 24.3821Z" fill="black"/>
<line x1="13.4867" y1="32.1145" x2="9.48671" y2="49.1145" stroke="black"/>
<line x1="9.18122" y1="48.534" x2="27.1812" y2="55.534" stroke="black"/>
<line x1="26.7969" y1="55.5431" x2="44.7969" y2="47.5431" stroke="black"/>
<line x1="44.5086" y1="48.0921" x2="41.5086" y2="32.0921" stroke="black"/>
</g>
<defs>
<clipPath id="clip0_33_172">
<rect width="55" height="70" fill="white"/>
</clipPath>
</defs>
</svg>
