<svg width="34" height="40" viewBox="0 0 34 40" fill="none" xmlns="http://www.w3.org/2000/svg">
<path d="M26.0949 13.2886L6.25382 6.69531L1 33.2141L21.2266 39.7388L26.0949 13.2886Z" fill="white" stroke="#0D0D0D" stroke-width="0.4" stroke-linejoin="round"/>
<path d="M19.5052 24.256L9.04493 20.598C7.31091 19.9916 5.44405 21.072 5.10589 22.8776L3.09143 33.6336L19.6039 39.2047L21.4768 27.5644C21.7077 26.1297 20.877 24.7358 19.5052 24.256Z" fill="#FFF066"/>
<path d="M19.5052 24.256L9.04493 20.598C7.31091 19.9916 5.44405 21.072 5.10589 22.8776L3.09143 33.6336L19.6039 39.2047L21.4768 27.5644C21.7077 26.1297 20.877 24.7358 19.5052 24.256Z" stroke="#0D0D0D" stroke-width="0.4" stroke-linejoin="round"/>
<path d="M8.62756 16.9692L20.0768 20.9731C21.6161 21.5113 23.3034 20.7216 23.876 19.1948L26.0919 13.2871L6.25527 6.69438L6.62135 14.2819C6.68025 15.5027 7.47386 16.5657 8.62756 16.9692Z" fill="white" stroke="#0D0D0D" stroke-width="0.4" stroke-linejoin="round"/>
<path d="M33.0929 11.1523L26.0919 13.2919L21.2268 39.7408L28.3004 37.6307L33.0929 11.1523Z" fill="#AACC00" stroke="#0D0D0D" stroke-width="0.4" stroke-linejoin="round"/>
<path d="M13.0972 4.56055L6.25525 6.69722L26.0919 13.2899L33.0912 11.1503L13.0972 4.56055Z" fill="white" stroke="#0D0D0D" stroke-width="0.4" stroke-linejoin="round"/>
<path d="M21.9306 10.353L15.4312 8.17033L18.1611 6.85156L24.5423 9.19897L21.9306 10.353Z" fill="#0D0D0D"/>
<path d="M21.9975 10.1331L22.5644 4.29644L18.3887 2.95397L17.9496 6.77546L15.4312 7.94899L15.84 2.13459L18.6615 1L25.373 3.2943L24.5951 9.14417L21.9975 10.1331Z" fill="white"/>
<path d="M22.5644 4.29644L21.9975 10.1331L24.5951 9.14417L25.373 3.2943M22.5644 4.29644L25.373 3.2943M22.5644 4.29644L15.84 2.13459M25.373 3.2943L18.6615 1L15.84 2.13459M15.84 2.13459L15.4312 7.94899L17.9496 6.77546L18.3887 2.95397" stroke="#0D0D0D" stroke-width="0.4" stroke-linejoin="round"/>
</svg>
