<svg width="55" height="60" viewBox="0 0 55 60" fill="none" xmlns="http://www.w3.org/2000/svg">
<path fill-rule="evenodd" clip-rule="evenodd" d="M38.3221 8.1203C38.4414 7.8239 38.7204 7.62897 39.017 7.67284L50.4382 9.36244C50.7931 9.41495 51.0316 9.78245 50.9564 10.1607L41.6849 56.7586C41.6173 57.0985 41.3185 57.3249 40.9995 57.2776L29.3299 55.5513C29.0285 55.5066 28.8065 55.2301 28.7711 54.9039C28.4716 52.1523 26.3051 50.0176 23.677 50.0176C21.5354 50.0176 19.7005 51.4349 18.9323 53.4483C18.8163 53.7521 18.5336 53.9542 18.2322 53.9095L6.5357 52.1792C6.18076 52.1266 5.94217 51.7592 6.01744 51.3808L15.2889 4.78294C15.3566 4.44303 15.6554 4.2168 15.9742 4.26398L27.9763 6.03953C28.2729 6.0834 28.4932 6.35228 28.5339 6.67257C28.8762 9.37323 31.021 11.4538 33.6156 11.4538C35.7224 11.4538 37.5326 10.082 38.3221 8.1203Z" fill="white"/>
<path d="M39.0542 7.37859L50.4754 9.0682L50.4007 9.6567L38.9795 7.9671L39.0542 7.37859ZM50.4754 9.0682C50.9889 9.14415 51.334 9.67586 51.2252 10.2231L50.6874 10.0983C50.7291 9.88906 50.5971 9.68575 50.4007 9.6567L50.4754 9.0682ZM51.2252 10.2231L41.9537 56.8212L41.4159 56.6963L50.6874 10.0983L51.2252 10.2231ZM41.9537 56.8212C41.8558 57.3128 41.4236 57.6401 40.9622 57.572L41.0368 56.9835C41.2132 57.0094 41.3785 56.8844 41.4159 56.6963L41.9537 56.8212ZM40.9622 57.572L29.2925 55.8455L29.3672 55.257L41.0368 56.9835L40.9622 57.572ZM28.4978 54.9385C28.2145 52.3348 26.1639 50.3146 23.6769 50.3146V49.7206C26.4461 49.7206 28.7285 51.9698 29.0441 54.8691L28.4978 54.9385ZM23.6769 50.3146C21.6506 50.3146 19.9137 51.6554 19.1866 53.5614L18.6779 53.3351C19.4871 51.2144 21.4201 49.7206 23.6769 49.7206V50.3146ZM18.1949 54.2038L6.49831 52.4735L6.57295 51.885L18.2696 53.6153L18.1949 54.2038ZM6.49831 52.4735C5.98481 52.3975 5.63961 51.8659 5.7485 51.3185L6.28623 51.4434C6.24459 51.6526 6.37659 51.8559 6.57295 51.885L6.49831 52.4735ZM5.7485 51.3185L15.02 4.72055L15.5578 4.84535L6.28623 51.4434L5.7485 51.3185ZM15.02 4.72055C15.1178 4.22876 15.5501 3.90146 16.0115 3.96973L15.9369 4.55824C15.7605 4.53213 15.5952 4.65728 15.5578 4.84535L15.02 4.72055ZM16.0115 3.96973L28.0136 5.74528L27.939 6.33379L15.9369 4.55824L16.0115 3.96973ZM28.8062 6.63228C29.1303 9.18787 31.1602 11.1568 33.6155 11.1568V11.7508C30.8815 11.7508 28.6221 9.5586 28.2613 6.71287L28.8062 6.63228ZM33.6155 11.1568C35.609 11.1568 37.3224 9.85906 38.0698 8.00192L38.5742 8.23869C37.7427 10.3049 35.8357 11.7508 33.6155 11.7508V11.1568ZM28.0136 5.74528C28.4483 5.80959 28.7512 6.19784 28.8062 6.63228L28.2613 6.71287C28.2352 6.50672 28.0975 6.35722 27.939 6.33379L28.0136 5.74528ZM19.1866 53.5614C19.0295 53.9729 18.6368 54.2692 18.1949 54.2038L18.2696 53.6153C18.4304 53.6391 18.6031 53.5313 18.6779 53.3351L19.1866 53.5614ZM29.2925 55.8455C28.8507 55.7802 28.546 55.3809 28.4978 54.9385L29.0441 54.8691C29.067 55.0794 29.2062 55.2332 29.3672 55.257L29.2925 55.8455ZM38.9795 7.9671C38.8211 7.94366 38.6512 8.0476 38.5742 8.23869L38.0698 8.00192C38.2315 7.6002 38.6197 7.31431 39.0542 7.37859L38.9795 7.9671Z" fill="#0D0D0D"/>
<path fill-rule="evenodd" clip-rule="evenodd" d="M37.6354 9.35674C37.7996 9.13343 38.0666 9.01999 38.3218 9.09301L39.9016 9.54508C40.2438 9.64302 40.4392 10.0318 40.3288 10.3951L27.7229 51.854C27.6927 51.9532 27.5762 51.9584 27.5119 51.8801C26.5723 50.7384 25.2023 50.0193 23.6767 50.0193C21.5352 50.0193 19.7002 51.4365 18.9321 53.4499C18.8162 53.7537 18.5335 53.9557 18.232 53.9111L6.53546 52.1808C6.18052 52.1283 5.94193 51.7609 6.01719 51.3825L15.2878 4.78891C15.3558 4.4472 15.6572 4.22071 15.9775 4.27062L28.0352 6.14933L28.0692 6.15906C28.3248 6.2322 28.5048 6.47443 28.5446 6.75673C28.9199 9.41714 31.0471 11.4555 33.6154 11.4555C35.2443 11.4555 36.6959 10.6354 37.6354 9.35674Z" fill="#0D0D0D"/>
<path d="M28.0352 6.14934L28.0548 6.00137L28.0704 6.0058L28.0352 6.14934ZM38.357 8.94947L39.9367 9.40155L39.8663 9.68863L38.2866 9.23655L38.357 8.94947ZM39.9367 9.40155C40.3554 9.52136 40.5945 9.99699 40.4594 10.4414L40.1981 10.3488C40.2839 10.0666 40.1321 9.76469 39.8663 9.68863L39.9367 9.40155ZM40.4594 10.4414L27.8535 51.9003L27.5923 51.8076L40.1981 10.3488L40.4594 10.4414ZM27.409 51.9789C26.4945 50.8675 25.1613 50.1678 23.6767 50.1678V49.8708C25.2431 49.8708 26.65 50.6095 27.6145 51.7815L27.409 51.9789ZM23.6767 50.1678C21.5927 50.1678 19.8069 51.5467 19.0592 53.5065L18.8049 53.3933C19.5936 51.3262 21.4775 49.8708 23.6767 49.8708V50.1678ZM18.2134 54.0583L6.51676 52.328L6.55408 52.0337L18.2507 53.764L18.2134 54.0583ZM6.51676 52.328C6.08254 52.2637 5.79065 51.814 5.88272 51.3513L6.15159 51.4137C6.09314 51.7076 6.27843 51.993 6.55408 52.0337L6.51676 52.328ZM5.88272 51.3513L15.1533 4.75772L15.4223 4.82012L6.15159 51.4137L5.88272 51.3513ZM15.1533 4.75772C15.2365 4.33967 15.6053 4.06259 15.9972 4.12364L15.9578 4.41759C15.7091 4.37883 15.4751 4.55473 15.4223 4.82012L15.1533 4.75772ZM15.9972 4.12364L28.0548 6.00137L28.0155 6.29633L15.9578 4.41759L15.9972 4.12364ZM28.0704 6.0058L28.1043 6.01553L28.0339 6.30262L27.9998 6.29289L28.0704 6.0058ZM28.6806 6.73439C29.0456 9.32333 31.1161 11.307 33.6153 11.307V11.604C30.9782 11.604 28.7939 9.51095 28.4086 6.7791L28.6806 6.73439ZM33.6153 11.307C35.2006 11.307 36.6131 10.5092 37.5277 9.26444L37.7432 9.44907C36.7785 10.7617 35.288 11.604 33.6153 11.604V11.307ZM28.1043 6.01553C28.4192 6.10564 28.6336 6.40106 28.6806 6.73439L28.4086 6.7791C28.376 6.54781 28.2301 6.35877 28.0339 6.30262L28.1043 6.01553ZM19.0592 53.5065C18.9228 53.8641 18.5851 54.1133 18.2134 54.0583L18.2507 53.764C18.4819 53.7983 18.7095 53.6433 18.8049 53.3933L19.0592 53.5065ZM27.8535 51.9003C27.8197 52.0114 27.7328 52.0729 27.6423 52.0815C27.5564 52.0898 27.4691 52.0518 27.409 51.9789L27.6145 51.7815C27.6189 51.7867 27.622 51.7854 27.618 51.7857C27.6154 51.786 27.6096 51.7873 27.6033 51.7925C27.5963 51.7981 27.5931 51.8048 27.5923 51.8076L27.8535 51.9003ZM38.2866 9.23655C38.0905 9.18046 37.8775 9.26616 37.7432 9.44907L37.5277 9.26444C37.7215 9.00069 38.0427 8.85951 38.357 8.94947L38.2866 9.23655Z" fill="#0D0D0D"/>
<path fill-rule="evenodd" clip-rule="evenodd" d="M36.9884 6.28138C37.1076 5.98503 37.3868 5.79017 37.6832 5.83402L49.1034 7.52347C49.4583 7.57598 49.6969 7.94349 49.6216 8.32177L40.3502 54.9198C40.2825 55.2597 39.9837 55.4858 39.6649 55.4386L27.9965 53.7125C27.6949 53.6679 27.473 53.3912 27.4375 53.0648C27.1385 50.313 24.9717 48.1779 22.3433 48.1779C20.2016 48.1779 18.3664 49.5954 17.5984 51.6092C17.4825 51.9132 17.1998 52.1153 16.8983 52.0706L5.20099 50.3402C4.84604 50.2877 4.60745 49.9202 4.68272 49.542L13.9543 2.94399C14.0218 2.60406 14.3206 2.37783 14.6396 2.42502L26.6431 4.20077C26.9396 4.24464 27.1599 4.51345 27.2005 4.83371C27.5433 7.53397 29.6877 9.61415 32.2822 9.61415C34.3887 9.61415 36.1988 8.24267 36.9884 6.28138Z" fill="white"/>
<path d="M37.7207 5.53977L49.1407 7.22922L49.0661 7.81773L37.646 6.12827L37.7207 5.53977ZM49.8905 8.38416L40.619 54.9821L40.0814 54.8574L49.3529 8.25937L49.8905 8.38416ZM39.6275 55.7329L27.9591 54.0068L28.0338 53.4183L39.7022 55.1444L39.6275 55.7329ZM27.1645 53.0996C26.8815 50.4955 24.8307 48.4749 22.3433 48.4749V47.8809C25.113 47.8809 27.3956 50.1305 27.7107 53.0302L27.1645 53.0996ZM22.3433 48.4749C20.3169 48.4749 18.5798 49.816 17.8527 51.7224L17.3443 51.4962C18.1532 49.3749 20.0864 47.8809 22.3433 47.8809V48.4749ZM16.8611 52.365L5.16371 50.6345L5.23836 50.046L16.9357 51.7765L16.8611 52.365ZM4.4139 49.4796L13.6854 2.88159L14.2231 3.00639L4.95163 49.6043L4.4139 49.4796ZM14.6769 2.13077L26.6804 3.90652L26.6058 4.49502L14.6022 2.71928L14.6769 2.13077ZM27.4731 4.79338C27.7973 7.34857 29.8272 9.31715 32.2823 9.31715V9.91115C29.5485 9.91115 27.2892 7.71936 26.9281 4.87404L27.4731 4.79338ZM32.2823 9.31715C34.2755 9.31715 35.9887 8.0197 36.7363 6.16295L37.2406 6.3998C36.4089 8.46563 34.5022 9.91115 32.2823 9.91115V9.31715ZM26.6804 3.90652C27.115 3.97082 27.4179 4.359 27.4731 4.79338L26.9281 4.87404C26.902 4.66792 26.7642 4.51847 26.6058 4.49502L26.6804 3.90652ZM13.6854 2.88159C13.7833 2.3898 14.2154 2.06251 14.6769 2.13077L14.6022 2.71928C14.4258 2.69317 14.2605 2.81833 14.2231 3.00639L13.6854 2.88159ZM5.16371 50.6345C4.6502 50.5585 4.30502 50.0268 4.4139 49.4796L4.95163 49.6043C4.90999 49.8136 5.04199 50.0169 5.23836 50.046L5.16371 50.6345ZM27.9591 54.0068C27.5173 53.9414 27.2125 53.542 27.1645 53.0996L27.7107 53.0302C27.7336 53.2405 27.8728 53.3944 28.0338 53.4183L27.9591 54.0068ZM40.619 54.9821C40.5213 55.474 40.089 55.8013 39.6275 55.7329L39.7022 55.1444C39.8786 55.1706 40.0439 55.0454 40.0814 54.8574L40.619 54.9821ZM49.1407 7.22922C49.6543 7.30519 49.9994 7.83688 49.8905 8.38416L49.3529 8.25937C49.3945 8.0501 49.2625 7.84677 49.0661 7.81773L49.1407 7.22922ZM17.8527 51.7224C17.6958 52.1339 17.303 52.4303 16.8611 52.365L16.9357 51.7765C17.0968 51.8002 17.2693 51.6924 17.3443 51.4962L17.8527 51.7224ZM37.646 6.12827C37.4876 6.10484 37.3175 6.20874 37.2406 6.3998L36.7363 6.16295C36.898 5.7613 37.2862 5.47548 37.7207 5.53977L37.646 6.12827Z" fill="#0D0D0D"/>
<path d="M29.4468 17.0414L25.6988 22.2818L19.5768 21.9183L23.0334 27.3874L20.8213 33.5632L26.7057 31.703L31.4606 35.8834L31.6408 29.2644L36.7915 25.6722L31.0184 23.4419L29.4468 17.0414Z" fill="#FFF066" stroke="#0D0D0D" stroke-width="0.4" stroke-linejoin="round"/>
<path fill-rule="evenodd" clip-rule="evenodd" d="M42.5541 43.843L40.3501 54.9206C40.2824 55.2606 39.9836 55.4867 39.6646 55.4395L27.9963 53.7133C27.6949 53.6688 27.4728 53.3921 27.4375 53.0657C27.1384 50.3137 24.9717 48.1786 22.3432 48.1786C20.2014 48.1786 18.3662 49.5963 17.5982 51.6101C17.4823 51.9141 17.1996 52.1161 16.8981 52.0715L5.20085 50.341C4.84592 50.2886 4.60733 49.9211 4.6826 49.5429L6.8671 38.5637L42.5541 43.843Z" fill="#AACC00"/>
<path d="M42.554 43.843L42.5914 43.5488C42.6672 43.56 42.7352 43.6048 42.7792 43.6725C42.8231 43.7402 42.839 43.8246 42.823 43.9054L42.554 43.843ZM6.86704 38.5637L6.59818 38.5012C6.62839 38.3494 6.76186 38.2483 6.90437 38.2693L6.86704 38.5637ZM42.823 43.9054L40.6188 54.983L40.0811 54.8581L42.2852 43.7806L42.823 43.9054ZM40.6188 54.983C40.5209 55.4749 40.0888 55.8022 39.6273 55.7338L39.702 55.1453C39.8784 55.1715 40.0437 55.0463 40.0811 54.8581L40.6188 54.983ZM39.6273 55.7338L27.9589 54.0077L28.0335 53.4192L39.702 55.1453L39.6273 55.7338ZM27.9589 54.0077C27.517 53.9423 27.2123 53.5429 27.1642 53.1003L27.7105 53.0311C27.7333 53.2414 27.8724 53.3953 28.0335 53.4192L27.9589 54.0077ZM27.1642 53.1003C26.8812 50.4962 24.8305 48.4756 22.3432 48.4756V47.8816C25.1127 47.8816 27.3953 50.1312 27.7105 53.0311L27.1642 53.1003ZM22.3432 48.4756C20.3165 48.4756 18.5794 49.8167 17.8524 51.7233L17.3439 51.4971C18.1528 49.3758 20.0861 47.8816 22.3432 47.8816V48.4756ZM17.8524 51.7233C17.6955 52.1348 17.3027 52.4312 16.8608 52.3659L16.9354 51.7774C17.0964 51.8011 17.269 51.6933 17.3439 51.4971L17.8524 51.7233ZM16.8608 52.3659L5.16347 50.6354L5.2381 50.0469L16.9354 51.7774L16.8608 52.3659ZM5.16347 50.6354C4.64996 50.5594 4.30476 50.0277 4.41366 49.4804L4.95139 49.6052C4.90975 49.8145 5.04174 50.0178 5.2381 50.0469L5.16347 50.6354ZM4.41366 49.4804L6.59818 38.5012L7.1359 38.626L4.95139 49.6052L4.41366 49.4804ZM6.90437 38.2693L42.5914 43.5488L42.5167 44.1373L6.82972 38.8579L6.90437 38.2693Z" fill="#0D0D0D"/>
</svg>
