<svg width="60" height="60" viewBox="0 0 60 60" fill="none" xmlns="http://www.w3.org/2000/svg">
<path d="M24.8033 48.7104L33.5774 18.7361C44.7512 18.1442 55.0013 20.0426 56.8582 21.0435L46.9807 55.6364C42.1768 52.7819 29.4157 48.1737 24.8033 48.7104Z" fill="#AACC00" stroke="#0D0D0D" stroke-width="0.4" stroke-linecap="round" stroke-linejoin="round"/>
<path d="M24.7976 48.7156L34.2254 16.4304C45.3992 15.8385 53.8682 17.7354 55.7251 18.7363L45.8476 53.3292C41.0438 50.4747 29.41 48.1789 24.7976 48.7156Z" fill="#AACC00" stroke="#0D0D0D" stroke-width="0.4" stroke-linejoin="round"/>
<path d="M24.7888 48.714L34.9702 13.8163C46.144 13.2244 52.651 15.0783 54.5079 16.0792L44.6304 50.6719C39.8266 47.8176 29.401 48.1773 24.7888 48.714Z" fill="white" stroke="#0D0D0D" stroke-width="0.4" stroke-linejoin="round"/>
<path d="M32.9218 25.0356L36.6241 13.7725H42.3781L38.7881 24.6708L37.2038 20.6862L32.9218 25.0356Z" fill="#FFF066" stroke="#0D0D0D" stroke-width="0.4" stroke-linecap="round" stroke-linejoin="round"/>
<path d="M24.7779 48.7408L30.5742 16.5051C26.188 12.5715 17.5587 8.91564 13.7586 7.50879C9.54652 18.7525 4.92541 35.3136 3.14136 42.1887C10.4167 44.4165 22.0657 46.6521 24.7779 48.7408Z" fill="#AACC00" stroke="#0D0D0D" stroke-width="0.4" stroke-linecap="round" stroke-linejoin="round"/>
<path d="M24.7557 48.6753L32.5269 15.0638C28.1407 11.13 19.5112 7.47423 15.7111 6.06738C11.4992 17.3112 6.87803 33.8723 5.09399 40.7472C12.3694 42.9752 22.0434 46.5867 24.7557 48.6753Z" fill="#AACC00" stroke="#0D0D0D" stroke-width="0.4" stroke-linejoin="round"/>
<path d="M24.7807 48.6878L34.9644 13.801C30.5782 9.86735 21.9487 6.21155 18.1486 4.80469C13.9367 16.0485 9.31553 32.6096 7.53149 39.4845C14.8069 41.7125 22.0686 46.5992 24.7807 48.6878Z" fill="white" stroke="#0D0D0D" stroke-width="0.4" stroke-linejoin="round"/>
<path d="M30.52 36.9086C34.1421 36.173 40.467 35.7573 45.9705 38.8613" stroke="#0D0D0D" stroke-width="0.4" stroke-linecap="round" stroke-linejoin="round"/>
<path d="M29.4756 39.4505C33.0976 38.7149 39.5185 38.6909 44.926 41.4032" stroke="#0D0D0D" stroke-width="0.4" stroke-linecap="round" stroke-linejoin="round"/>
<path d="M28.6055 41.9926C32.2275 41.2569 39.2639 41.2369 44.0559 43.9452" stroke="#0D0D0D" stroke-width="0.4" stroke-linecap="round" stroke-linejoin="round"/>
</svg>
