<svg width="55" height="57" viewBox="0 0 55 57" fill="none" xmlns="http://www.w3.org/2000/svg">
<path d="M9.86804 8.9917V22.8051L18.5787 22.9286V8.9917H9.86804Z" fill="#AACC00" stroke="#3D3D3D" stroke-width="0.4" stroke-linecap="round" stroke-linejoin="round"/>
<path d="M17.3735 8.12844C15.3384 7.64766 13.2095 7.64766 11.1744 8.12844C9.46125 8.5953 9.46125 9.37798 11.1744 9.87229C13.2113 10.3389 15.3366 10.3389 17.3735 9.87229C19.0866 9.37798 19.0866 8.58157 17.3735 8.12844Z" fill="white" stroke="#3D3D3D" stroke-width="0.4" stroke-linecap="round" stroke-linejoin="round"/>
<path d="M27.5071 30.2471V53.0818L1.375 45.7769V22.9285L14.2814 15.0882L27.5071 30.2471Z" fill="white" stroke="#3D3D3D" stroke-width="0.4" stroke-linecap="round" stroke-linejoin="round"/>
<path d="M14.4114 30.1116C15.6617 30.4456 16.7629 31.1555 17.5487 32.1341C18.3345 33.1126 18.762 34.3065 18.7667 35.5352V50.6393L10.056 48.209V33.1049C10.0646 32.6111 10.1944 32.1259 10.4353 31.6878C10.6761 31.2496 11.0213 30.8704 11.4437 30.58C11.8661 30.2897 12.3542 30.0963 12.8692 30.015C13.3842 29.9337 13.9122 29.9667 14.4114 30.1116Z" fill="white" stroke="#3D3D3D" stroke-width="0.4" stroke-linecap="round" stroke-linejoin="round"/>
<path d="M53.6107 22.9293V45.7777L27.4785 53.0826V30.2479L53.6107 22.9293Z" fill="#AACC00" stroke="#3D3D3D" stroke-width="0.4" stroke-linecap="round" stroke-linejoin="round"/>
<path d="M40.355 7.77038L53.6244 22.8745L27.4923 30.1931L14.2374 15.0891L40.355 7.77038Z" fill="white" stroke="#3D3D3D" stroke-width="0.4" stroke-linecap="round" stroke-linejoin="round"/>
<path d="M51.1213 20.4222L43.001 20.0373L48.6064 17.5612L51.1213 20.4222Z" fill="#3D3D3D"/>
<path d="M43.7702 19.7987C49.2045 19.7987 53.61 15.632 53.61 10.4923C53.61 5.35252 49.2045 1.18591 43.7702 1.18591C38.3359 1.18591 33.9305 5.35252 33.9305 10.4923C33.9305 15.632 38.3359 19.7987 43.7702 19.7987Z" fill="white" stroke="#3D3D3D" stroke-width="0.4" stroke-linecap="round" stroke-linejoin="round"/>
<mask id="mask0_12_833" style="mask-type:alpha" maskUnits="userSpaceOnUse" x="33" y="0" width="21" height="20">
<path d="M43.7702 19.2576C49.2045 19.2576 53.61 15.091 53.61 9.95118C53.61 4.8114 49.2045 0.644794 43.7702 0.644794C38.3359 0.644794 33.9305 4.8114 33.9305 9.95118C33.9305 15.091 38.3359 19.2576 43.7702 19.2576Z" fill="#E0E0E0" stroke="#3D3D3D" stroke-width="0.4" stroke-linecap="round" stroke-linejoin="round"/>
</mask>
<g mask="url(#mask0_12_833)">
<path fill-rule="evenodd" clip-rule="evenodd" d="M43.771 11.1598C45.8085 11.1598 47.4603 9.6046 47.4603 7.68612C47.4603 5.76765 45.8085 4.21242 43.771 4.21242C41.7334 4.21242 40.0816 5.76765 40.0816 7.68612C40.0816 9.6046 41.7334 11.1598 43.771 11.1598ZM43.7705 23.3434C47.3433 23.3434 50.2397 20.6163 50.2397 17.2523C50.2397 13.8883 47.3433 11.1612 43.7705 11.1612C40.1977 11.1612 37.3014 13.8883 37.3014 17.2523C37.3014 20.6163 40.1977 23.3434 43.7705 23.3434Z" fill="#FFF066"/>
<path d="M47.1853 7.68611C47.1853 9.46159 45.6566 10.9009 43.771 10.9009V11.4188C45.9604 11.4188 47.7353 9.74759 47.7353 7.68611H47.1853ZM43.771 4.47135C45.6566 4.47135 47.1853 5.91064 47.1853 7.68611H47.7353C47.7353 5.62464 45.9604 3.95349 43.771 3.95349V4.47135ZM40.3566 7.68611C40.3566 5.91064 41.8853 4.47135 43.771 4.47135V3.95349C41.5815 3.95349 39.8066 5.62464 39.8066 7.68611H40.3566ZM43.771 10.9009C41.8853 10.9009 40.3566 9.46159 40.3566 7.68611H39.8066C39.8066 9.74759 41.5815 11.4188 43.771 11.4188V10.9009ZM49.9647 17.2523C49.9647 20.4734 47.1915 23.0845 43.7705 23.0845V23.6024C47.4952 23.6024 50.5147 20.7593 50.5147 17.2523H49.9647ZM43.7705 11.4202C47.1915 11.4202 49.9647 14.0313 49.9647 17.2523H50.5147C50.5147 13.7454 47.4952 10.9023 43.7705 10.9023V11.4202ZM37.5764 17.2523C37.5764 14.0313 40.3496 11.4202 43.7705 11.4202V10.9023C40.0459 10.9023 37.0264 13.7454 37.0264 17.2523H37.5764ZM43.7705 23.0845C40.3496 23.0845 37.5764 20.4734 37.5764 17.2523H37.0264C37.0264 20.7593 40.0459 23.6024 43.7705 23.6024V23.0845Z" fill="#222222"/>
</g>
</svg>
