<svg width="55" height="60" viewBox="0 0 55 60" fill="none" xmlns="http://www.w3.org/2000/svg">
<path d="M44.2929 8.4053C44.9405 8.60272 45.4919 9.03344 45.8403 9.61406C46.1887 10.1947 46.3092 10.8839 46.1786 11.5483L40.631 46.6711C40.578 47.1392 40.4058 47.586 40.1307 47.9686C39.8555 48.3511 39.4865 48.6565 39.0594 48.8554L18.9277 56.7129L2.44197 41.6265C2.10851 41.2777 1.85991 40.8565 1.71547 40.3959C1.57102 39.9353 1.53456 39.4477 1.60899 38.9708L7.15668 3.84799C7.18217 3.51921 7.27328 3.19888 7.42467 2.90593C7.57608 2.61297 7.78473 2.35336 8.03819 2.14239C8.29164 1.93143 8.58475 1.7734 8.90032 1.67767C9.2159 1.58194 9.5475 1.55045 9.87545 1.58504L44.2929 8.4053Z" fill="white" stroke="#3D3D3D" stroke-width="0.4" stroke-linecap="round" stroke-linejoin="round"/>
<path d="M47.829 48.0999C47.7732 48.5672 47.5997 49.0127 47.3247 49.3947C47.0499 49.7767 46.6828 50.0828 46.2574 50.2843L26.1255 58.1418L18.9277 56.7116L39.0595 48.8542C39.4828 48.6543 39.8489 48.3505 40.1236 47.9715C40.3983 47.5924 40.5728 47.1501 40.6311 46.6856L47.829 48.0999Z" fill="#AACC00" stroke="#3D3D3D" stroke-width="0.4" stroke-linecap="round" stroke-linejoin="round"/>
<path d="M53.377 13.0252L47.8294 48.1479L40.6315 46.7494L46.1792 11.6109C46.3098 10.9465 46.1891 10.2573 45.8408 9.67665C45.4924 9.09603 44.9411 8.66533 44.2934 8.46791L51.5069 9.88224C52.1516 10.0828 52.6994 10.5148 53.0447 11.0951C53.3899 11.6754 53.5082 12.3629 53.377 13.0252Z" fill="#AACC00" stroke="#3D3D3D" stroke-width="0.4" stroke-linecap="round" stroke-linejoin="round"/>
<path d="M35.2874 41.0281C33.9473 38.7505 32.1468 36.7775 30.0008 35.2352C27.8549 33.6927 25.4108 32.615 22.8247 32.0706C20.2881 31.6105 17.6829 31.689 15.1785 32.3007C12.6741 32.9126 10.3264 34.0442 8.28777 35.6222C6.0292 37.3264 4.13255 39.4633 2.70862 41.9083L18.9116 56.743L38.2574 49.1527C37.8536 46.2649 36.8413 43.4957 35.2874 41.0281Z" fill="white" stroke="#3D3D3D" stroke-width="0.4" stroke-linecap="round" stroke-linejoin="round"/>
<path d="M16.1375 47.6374L13.5382 43.2259L15.8667 41.7986L17.094 43.8375L24.1154 39.5558L25.5052 41.9469L16.1375 47.6374Z" fill="#AACC00" stroke="#3D3D3D" stroke-width="0.4" stroke-linecap="round" stroke-linejoin="round"/>
<path d="M31.9877 24.9697C32.7922 20.3546 29.9245 15.9995 25.5822 15.2425C21.2399 14.4855 17.0674 17.6132 16.2627 22.2282C15.4581 26.8433 18.326 31.1982 22.6682 31.9553C27.0105 32.7123 31.1829 29.5848 31.9877 24.9697Z" fill="#FFF066" stroke="#3D3D3D" stroke-width="0.4" stroke-linecap="round" stroke-linejoin="round"/>
</svg>
