<svg width="55" height="55" viewBox="0 0 55 55" fill="none" xmlns="http://www.w3.org/2000/svg">
<path d="M38.2441 14.3173L48.9898 11.2095V44.2754L38.2441 47.3833V14.3173Z" fill="#AACC00" stroke="black" stroke-width="0.4" stroke-linejoin="round"/>
<path d="M38.2442 14.3173L27.4985 11.2095V44.2754L38.2442 47.3833V14.3173Z" fill="white" stroke="black" stroke-width="0.4" stroke-linejoin="round"/>
<path d="M38.3125 8.03978L48.9911 11.2135L38.2489 14.318L27.4988 11.2082L38.3125 8.03978Z" fill="#FFF066" stroke="black" stroke-width="0.4" stroke-linejoin="round"/>
<path d="M16.7551 8.80116L27.5008 5.69336V44.2333L16.7551 47.3413V8.80116Z" fill="#AACC00" stroke="black" stroke-width="0.4" stroke-linejoin="round"/>
<path d="M16.7551 8.79578L6.00952 5.68799V44.3528L16.7551 47.4606V8.79578Z" fill="white" stroke="black" stroke-width="0.4" stroke-linejoin="round"/>
<path d="M16.8221 2.51562L27.5008 5.68933L16.7586 8.79383L6.0083 5.684L16.8221 2.51562Z" fill="#FFF066" stroke="black" stroke-width="0.4" stroke-linejoin="round"/>
<path d="M27.5 24.2001L16.7544 21.0922V25.4826L27.5 28.5905V24.2001Z" fill="white" stroke="black" stroke-width="0.4" stroke-linejoin="round"/>
<path d="M27.5 24.2001L38.2456 21.0922V25.4826L27.5 28.5905V24.2001Z" fill="#AACC00" stroke="black" stroke-width="0.4" stroke-linejoin="round"/>
<path d="M27.5 28.5937L16.7544 25.4859V29.8763L27.5 32.984V28.5937Z" fill="white" stroke="black" stroke-width="0.4" stroke-linejoin="round"/>
<path d="M27.5 28.5937L38.2456 25.4859V29.8763L27.5 32.984V28.5937Z" fill="#AACC00" stroke="black" stroke-width="0.4" stroke-linejoin="round"/>
<path d="M27.5 33.0087L16.7544 29.9009V34.2913L27.5 37.399V33.0087Z" fill="white" stroke="black" stroke-width="0.4" stroke-linejoin="round"/>
<path d="M27.5 33.0087L38.2456 29.9009V34.2913L27.5 37.399V33.0087Z" fill="#AACC00" stroke="black" stroke-width="0.4" stroke-linejoin="round"/>
<path d="M27.5 37.4264L16.7544 34.3186V38.709L27.5 41.8168V37.4264Z" fill="white" stroke="black" stroke-width="0.4" stroke-linejoin="round"/>
<path d="M27.5 37.4264L38.2456 34.3186V38.709L27.5 41.8168V37.4264Z" fill="#AACC00" stroke="black" stroke-width="0.4" stroke-linejoin="round"/>
<path d="M27.5 41.8414L16.7544 38.7336V43.124L27.5 46.2318V41.8414Z" fill="white" stroke="black" stroke-width="0.4" stroke-linejoin="round"/>
<path d="M27.5 41.8414L38.2456 38.7336V43.124L27.5 46.2318V41.8414Z" fill="#AACC00" stroke="black" stroke-width="0.4" stroke-linejoin="round"/>
<path d="M27.5 46.2565L16.7544 43.1487V47.5391L27.5 50.6469V46.2565Z" fill="white" stroke="black" stroke-width="0.4" stroke-linejoin="round"/>
<path d="M27.5 46.2565L38.2456 43.1487V47.5391L27.5 50.6469V46.2565Z" fill="#AACC00" stroke="black" stroke-width="0.4" stroke-linejoin="round"/>
<path d="M27.5648 17.9172L38.2435 21.091L27.5013 24.1954L16.751 21.0856L27.5648 17.9172Z" fill="#FFF066" stroke="black" stroke-width="0.4" stroke-linejoin="round"/>
</svg>
