<svg width="55" height="55" viewBox="0 0 55 55" fill="none" xmlns="http://www.w3.org/2000/svg">
<g clip-path="url(#clip0_12_644)">
<path d="M38.4646 48.8745L1.12939 38.868L3.88997 43.6297L41.2427 53.8163L38.4646 48.8745Z" fill="#1E8057" stroke="#0D0D0D" stroke-width="0.4" stroke-linejoin="round"/>
<path d="M51.0247 11.5398L38.4646 48.8748L41.2426 53.8165L53.8706 15.5083L51.0247 11.5398Z" fill="#AACC00" stroke="#0D0D0D" stroke-width="0.4" stroke-linejoin="round"/>
<path d="M1.12939 38.8671L13.6895 1.18701L51.0246 11.5387L38.4646 48.8737L1.12939 38.8671Z" fill="#F7F4F4" stroke="#0D0D0D" stroke-width="0.4" stroke-linejoin="round"/>
<path d="M17.1189 43.0633L29.3046 5.50537L34.9069 7.08273L22.7077 44.5844L17.1189 43.0633Z" fill="#AACC00" stroke="#0D0D0D" stroke-width="0.4" stroke-linejoin="round"/>
<path d="M19.3628 47.7813L17.1189 43.0628L22.7077 44.5838L25.4822 49.5144L19.3628 47.7813Z" stroke="#0D0D0D" stroke-width="0.4" stroke-linejoin="round"/>
<path d="M25.6785 36.3109C26.0464 35.2073 25.8318 28.3992 25.6785 25.1331L27.5531 23.9658C30.3122 24.1427 31.6918 36.806 30.489 36.3109C29.527 35.9147 27.0227 36.1457 25.6785 36.3109Z" fill="#FFF066" stroke="#0D0D0D" stroke-width="0.4" stroke-linejoin="round"/>
<path d="M19.7137 34.0249C20.6386 33.7715 24.3794 27.7944 25.6788 26.3924L23.6823 24.5378C19.3165 27.0036 15.8074 31.119 15.5051 32.1343C16.8951 33.7176 18.7888 34.2785 19.7137 34.0249Z" fill="#FFF066" stroke="#0D0D0D" stroke-width="0.4" stroke-linejoin="round"/>
<path d="M41.9148 24.927C43.974 21.5353 34.9215 21.9135 30.5277 22.7187L27.5459 24.2513L28.7787 27.0614C40.1816 40.0558 38.3776 30.753 41.9148 24.927Z" fill="#FFF066" stroke="#0D0D0D" stroke-width="0.4" stroke-linejoin="round"/>
<path d="M28.7317 26.6567C33.4215 27.6599 40.0039 30.6713 38.1639 33.0781C36.3239 35.4849 30.5065 29.426 28.7317 26.6567Z" fill="#8A8A8A" stroke="#0D0D0D" stroke-width="0.4" stroke-linejoin="round"/>
<path d="M14.4739 15.0959C14.8799 15.125 21.9012 19.4472 24.7538 21.3327C27.2739 21.8646 24.9356 24.8284 24.4818 25.0858C21.3636 26.8543 11.156 27.5153 10.9202 25.6296C10.0862 17.1628 13.9661 15.0596 14.4739 15.0959Z" fill="#FFF066" stroke="#0D0D0D" stroke-width="0.4" stroke-linejoin="round"/>
<path d="M22.5892 25.7947C19.7934 26.6938 9.96925 27.9396 10.9282 24.7618C11.3648 21.2942 19.6798 24.2769 22.5892 25.7947Z" fill="#8A8A8A" stroke="#0D0D0D" stroke-width="0.4" stroke-linejoin="round"/>
<path d="M22.3664 24.2919L22.9334 22.243C23.1692 21.3906 23.8184 20.7104 24.7018 20.7511C26.9013 20.8527 30.263 21.9014 30.2068 22.5479C30.1614 23.071 29.4044 24.8706 28.7846 26.3159C28.5163 26.9418 28.0305 27.4698 27.3791 27.6683C24.4225 28.5695 22.833 26.811 22.3504 25.4049C22.2271 25.0455 22.265 24.658 22.3664 24.2919Z" fill="#FFF066" stroke="#0D0D0D" stroke-width="0.4" stroke-linejoin="round"/>
</g>
<defs>
<clipPath id="clip0_12_644">
<rect width="55" height="55" fill="white"/>
</clipPath>
</defs>
</svg>
