<svg width="60" height="60" viewBox="0 0 60 60" fill="none" xmlns="http://www.w3.org/2000/svg">
<path d="M52 13.569L21.897 4L10 44.1774L40.2832 54L52 13.569Z" fill="#AACC00"/>
<path fill-rule="evenodd" clip-rule="evenodd" d="M11.6162 37.6344L37.0075 45.4432C37.9443 45.7314 38.9396 45.2169 39.2462 44.286L46.0566 23.6166C46.3734 22.6552 45.8355 21.6219 44.8665 21.3298L19.1306 13.5732L11.6162 37.6344Z" fill="#0D0D0D"/>
<path d="M43.532 18.7176L12.0662 9.234C11.1391 8.95459 10.1571 9.45864 9.8437 10.3748L2.85698 30.7966C2.52805 31.7581 3.05968 32.8011 4.03096 33.0997L35.6731 42.831C36.6098 43.119 37.6051 42.6046 37.9117 41.6737L44.7221 21.0043C45.0389 20.043 44.501 19.0096 43.532 18.7176Z" fill="white" stroke="#0D0D0D" stroke-width="0.4" stroke-linejoin="round"/>
<path d="M44.0332 23.0801L9.15825 12.3644L8.00964 15.7502L42.9082 26.4725L44.0332 23.0801Z" fill="#FFF066" stroke="#0D0D0D" stroke-width="0.4" stroke-linejoin="round"/>
<path d="M36.0581 36.4432L27.2068 33.7238C27.0484 33.6751 26.8806 33.7641 26.8319 33.9225L26.0764 36.3816C26.0278 36.54 26.1167 36.7078 26.2751 36.7565L35.1263 39.4759C35.2847 39.5245 35.4526 39.4356 35.5012 39.2772L36.2567 36.818C36.3054 36.6597 36.2165 36.4918 36.0581 36.4432Z" fill="#FFF066" stroke="#0D0D0D" stroke-width="0.4" stroke-linejoin="round"/>
</svg>
